<svg xmlns="http://www.w3.org/2000/svg" width="1200" height="630" viewBox="0 0 1200 630" role="img" aria-label="Lumify - OG Image">
  <defs>
    <linearGradient id="bg" x1="0" y1="0" x2="1" y2="1">
      <stop offset="0%" stop-color="#0b1020"/>
      <stop offset="100%" stop-color="#111827"/>
    </linearGradient>
    <linearGradient id="glow" x1="0" y1="0" x2="1" y2="1">
      <stop offset="0%" stop-color="#7c3aed"/>
      <stop offset="100%" stop-color="#22d3ee"/>
    </linearGradient>
    <filter id="blur" x="-20%" y="-20%" width="140%" height="140%">
      <feGaussianBlur stdDeviation="80" />
    </filter>
  </defs>
  <rect width="1200" height="630" fill="url(#bg)"/>
  <g transform="translate(850, -100)" opacity="0.6" filter="url(#blur)">
    <circle cx="0" cy="0" r="220" fill="#7c3aed"/>
    <circle cx="-120" cy="160" r="180" fill="#22d3ee"/>
  </g>
  <g transform="translate(200,110)">
    <g transform="scale(8)">
      <path d="M20 0c-8.837 0-16 6.268-16 14 0 4.77 2.42 8.56 6.02 11.25 2.02 1.54 3.31 3.9 3.72 6.44l.14.86h12.24l.14-.86c.41-2.54 1.7-4.9 3.72-6.44C33.58 22.56 36 18.77 36 14 36 6.268 28.837 0 20 0z" fill="url(#glow)"/>
      <rect x="13" y="34" width="14" height="5" rx="2.5" fill="#e5e7eb"/>
      <rect x="15" y="40" width="10" height="4" rx="2" fill="#94a3b8"/>
      <circle cx="20" cy="14" r="6" fill="#ffffff" opacity="0.15"/>
    </g>
  </g>
  <g transform="translate(540,250)">
    <text x="0" y="0" font-family="ui-sans-serif, -apple-system, Segoe UI, Roboto, Ubuntu, Cantarell, Noto Sans, Helvetica Neue, Arial" font-size="64" fill="#e5e7eb" font-weight="700">Lumify</text>
    <text x="0" y="56" font-family="ui-sans-serif, -apple-system, Segoe UI, Roboto, Ubuntu, Cantarell, Noto Sans, Helvetica Neue, Arial" font-size="28" fill="#a1a1aa">Controle financeiro inteligente</text>
  </g>
</svg>




