<svg xmlns="http://www.w3.org/2000/svg" viewBox="0 0 64 64" width="64" height="64" role="img" aria-label="Lumify">
  <defs>
    <linearGradient id="g" x1="0" y1="0" x2="1" y2="1">
      <stop offset="0%" stop-color="#7c3aed"/>
      <stop offset="100%" stop-color="#22d3ee"/>
    </linearGradient>
  </defs>
  <rect width="64" height="64" rx="12" fill="#0b1020"/>
  <g transform="translate(12,8)">
    <path d="M20 0c-8.837 0-16 6.268-16 14 0 4.77 2.42 8.56 6.02 11.25 2.02 1.54 3.31 3.9 3.72 6.44l.14.86h12.24l.14-.86c.41-2.54 1.7-4.9 3.72-6.44C33.58 22.56 36 18.77 36 14 36 6.268 28.837 0 20 0z" fill="url(#g)"/>
    <rect x="13" y="34" width="14" height="5" rx="2.5" fill="#e5e7eb"/>
    <rect x="15" y="40" width="10" height="4" rx="2" fill="#94a3b8"/>
    <circle cx="20" cy="14" r="6" fill="#ffffff" opacity="0.15"/>
  </g>
</svg>




